<svg width="16" height="16" viewBox="0 0 16 16" fill="none" xmlns="http://www.w3.org/2000/svg">
<path d="M14.2392 15.8653H1.60473C0.832322 15.8643 0.206527 15.2382 0.206055 14.4657V1.8313C0.207 1.05922 0.832657 0.433563 1.60473 0.432617H14.2383C15.0107 0.43356 15.6368 1.05894 15.6387 1.8313V14.4657C15.6378 15.2383 15.0117 15.8643 14.2392 15.8653ZM3.35094 6.14918L3.018 7.37625H4.11463L3.40586 10.2646C3.35377 10.493 3.32502 10.7262 3.32005 10.9605C3.28016 11.3375 3.41509 11.712 3.68626 11.977C3.95743 12.242 4.33499 12.3683 4.711 12.3197C5.50882 12.2851 6.22548 11.8215 6.58421 11.1081L6.30361 12.2236H7.8576L8.74401 8.67024C8.96711 7.76067 9.40645 7.2973 10.0474 7.2973C10.2752 7.28031 10.4989 7.36421 10.6593 7.52677C10.8197 7.68933 10.9007 7.91415 10.8806 8.14166C10.8829 8.31066 10.8583 8.47894 10.8077 8.64021L10.3546 10.2757C10.2893 10.5022 10.2564 10.7368 10.2568 10.9725C10.2323 11.349 10.3764 11.7169 10.6501 11.9765C10.9238 12.2361 11.2989 12.3606 11.6735 12.3162C12.5573 12.3162 13.1734 11.7156 13.5072 10.5306L12.9006 10.2963C12.6637 10.9733 12.4115 11.3028 12.1283 11.3028C11.9215 11.3028 11.8125 11.1595 11.8125 10.8875C11.8183 10.7449 11.8399 10.6033 11.8769 10.4654L12.3231 8.87103C12.4243 8.54299 12.4763 8.20178 12.4775 7.85849C12.5286 7.40233 12.385 6.94579 12.082 6.601C11.779 6.2562 11.3447 6.0551 10.8858 6.04707C9.98637 6.16991 9.2098 6.73861 8.82123 7.55902L9.13015 6.17149H6.7378L6.40229 7.37281H7.51265L6.82619 10.1084C6.58648 10.7804 5.97118 11.2465 5.25932 11.2951C5.23288 11.2955 5.20646 11.2935 5.18038 11.2891C4.97186 11.2402 4.85087 11.1604 4.85087 10.9013C4.85573 10.6871 4.88744 10.4743 4.94526 10.268L5.98869 6.14918H3.35094ZM5.36315 3.43592C5.02899 3.43592 4.72022 3.61419 4.55314 3.90357C4.38607 4.19296 4.38607 4.5495 4.55314 4.83889C4.72022 5.12827 5.02899 5.30654 5.36315 5.30654V5.28509C5.61332 5.28712 5.85417 5.19029 6.03331 5.01565C6.20895 4.84223 6.30705 4.60518 6.30533 4.35836C6.29873 3.84395 5.87758 3.43162 5.36315 3.43592Z" fill="#2E3A59"/>
</svg>
