<svg width="60" height="61" viewBox="0 0 60 61" fill="none" xmlns="http://www.w3.org/2000/svg">
<path d="M30.6571 10.3995C30.4818 10.4438 30.2959 10.4612 30.1176 10.4316C27.5727 9.77852 25.211 8.55144 23.2137 6.84439C23.0327 6.65138 22.9322 6.39661 22.9326 6.13204C22.933 5.86746 23.0343 5.613 23.2159 5.42055C23.3975 5.22809 23.6456 5.11214 23.9097 5.09634C24.1738 5.08054 24.434 5.16607 24.6372 5.3355C26.4061 6.78524 28.4711 7.82989 30.687 8.39599C30.8184 8.4306 30.9416 8.491 31.0494 8.57367C31.1573 8.65633 31.2476 8.75961 31.3151 8.8775C31.3827 8.99539 31.4261 9.12554 31.4429 9.26037C31.4597 9.3952 31.4496 9.53203 31.413 9.66289C31.3504 9.88586 31.2161 10.082 31.0308 10.2209C30.9186 10.3051 30.7914 10.3655 30.6571 10.3995Z" fill="#fff"/>
<path d="M39.7406 60.7932C39.5359 60.8355 39.3183 60.8514 39.1136 60.8089C38.9021 60.7468 38.7166 60.6172 38.5855 60.4398C38.4544 60.2625 38.385 60.0471 38.3877 59.8267C38.3877 59.7412 38.1884 51.1861 29.8468 40.9655C29.6731 40.7541 29.5905 40.4823 29.6172 40.21C29.6439 39.9377 29.7777 39.6872 29.9891 39.5135C30.2005 39.3399 30.4723 39.2573 30.7446 39.284C31.0169 39.3107 31.2674 39.4445 31.4411 39.6559C33.0564 41.514 34.4887 43.5119 35.7237 45.6214C37.9841 49.4824 43.9365 50.0742 44.6602 45.6591C45.4614 40.7715 44.4836 37.2106 43.7542 35.357C43.2657 34.1335 43.1085 32.8029 43.2987 31.4993C43.4837 30.2894 43.6546 29.0367 43.7969 27.7983C43.8116 27.6617 43.8532 27.5295 43.9192 27.4091C43.9853 27.2888 44.0746 27.1827 44.1819 27.097C44.2893 27.0114 44.4125 26.9479 44.5445 26.9101C44.6765 26.8724 44.8147 26.8612 44.9511 26.8772C45.0875 26.8932 45.2193 26.936 45.3391 27.0033C45.4588 27.0705 45.564 27.1608 45.6486 27.269C45.7332 27.3771 45.7955 27.501 45.832 27.6334C45.8684 27.7657 45.8783 27.904 45.861 28.0403C45.7186 29.3072 45.5478 30.5741 45.3485 31.8125C45.2058 32.7516 45.324 33.7118 45.6901 34.5883C47.1136 38.1185 49.4054 47.6986 40.3378 60.4245C40.2307 60.5602 40.091 60.6666 39.9317 60.7338C39.8699 60.7599 39.8058 60.7798 39.7406 60.7932Z" fill="#fff"/>
<path d="M8.42362 60.8089C8.25843 60.8084 8.09579 60.7681 7.94955 60.6912C7.80332 60.6144 7.67782 60.5034 7.58376 60.3676C-1.49807 47.6416 0.793744 38.0616 2.21723 34.5313C2.57163 33.6517 2.68467 32.6935 2.54463 31.7556C1.85394 27.3031 1.46869 22.8086 1.3916 18.3036C1.40584 9.32144 7.91116 2.0332 15.9396 2.0332C17.5578 2.04125 19.1503 2.34223 20.6435 2.91133C22.725 3.70465 25.1257 3.70465 27.2072 2.91133C28.7004 2.34223 30.2929 2.04125 31.9111 2.0332C35.3069 2.06512 38.5694 3.35897 41.0641 5.66309C41.165 5.75655 41.2466 5.86899 41.3041 5.99397C41.3616 6.11895 41.3939 6.25404 41.3992 6.39151C41.4045 6.52898 41.3826 6.66614 41.3349 6.79517C41.2872 6.9242 41.2145 7.04257 41.121 7.14351C41.0276 7.24445 40.9151 7.326 40.7902 7.38349C40.6652 7.44099 40.5301 7.4733 40.3926 7.47859C40.2551 7.48387 40.118 7.46203 39.989 7.41431C39.8599 7.36659 39.7416 7.29392 39.6406 7.20045C37.6198 5.28152 34.9578 4.18238 32.1719 4.11661C29.3859 4.05084 26.675 5.02315 24.5659 6.84458C24.3822 7.00383 24.1472 7.0915 23.904 7.0915C23.6608 7.0915 23.4258 7.00383 23.2421 6.84458C21.2016 5.09951 18.6102 4.13151 15.9254 4.11149C9.04995 4.11149 3.46989 10.4887 3.46989 18.3463C3.54256 22.7465 3.9183 27.1365 4.59444 31.4851C4.79153 32.7885 4.63419 34.121 4.13893 35.3427C3.10362 37.9433 1.54539 44.183 5.47951 52.7681C6.18707 54.3121 8.42423 53.9771 9.00724 52.3818C9.04918 52.2477 9.11791 52.1234 9.20926 52.0166C9.30062 51.9097 9.4127 51.8225 9.53872 51.7603C9.66475 51.698 9.80209 51.6619 9.94246 51.6543C10.0828 51.6466 10.2233 51.6675 10.3553 51.7157C10.4874 51.7639 10.6083 51.8384 10.7107 51.9346C10.8131 52.0309 10.895 52.147 10.9513 52.2758C11.0075 52.4046 11.0371 52.5435 11.0382 52.684C11.0392 52.8246 11.0118 52.9639 10.9574 53.0936C10.1189 55.2444 9.61023 57.5096 9.44853 59.8124C9.4467 60.0318 9.37548 60.245 9.24507 60.4214C9.11466 60.5979 8.93175 60.7285 8.72255 60.7946C8.62465 60.8179 8.52328 60.8227 8.42362 60.8089Z" fill="#fff"/>
<path d="M-nan -nanL15.0285 51.9405C14.5925 51.9422 14.1604 51.8575 13.7573 51.6914C13.3542 51.5252 12.988 51.2809 12.6797 50.9725L8.58011 46.9013C7.96033 46.2796 7.6123 45.4376 7.6123 44.5597C7.6123 43.6818 7.96033 42.8398 8.58011 42.2181L13.7474 37.0508C14.3715 36.4302 15.2159 36.0818 16.0961 36.0818C16.9763 36.0818 17.8207 36.4302 18.4449 37.0508L22.5018 41.122C23.1224 41.7461 23.4708 42.5905 23.4708 43.4707C23.4708 44.3509 23.1224 45.1954 22.5018 45.8195L17.3488 50.9725C16.7332 51.5884 15.8993 51.9363 15.0285 51.9405L-nan -nanZM16.1246 38.1611C15.9612 38.1585 15.7989 38.1887 15.6473 38.2498C15.4957 38.3109 15.3579 38.4018 15.242 38.517L10.089 43.6843C9.97057 43.7972 9.8763 43.9331 9.81189 44.0836C9.74748 44.234 9.71427 44.396 9.71427 44.5597C9.71427 44.7234 9.74748 44.8854 9.81189 45.0358C9.8763 45.1863 9.97057 45.3222 10.089 45.4351L14.1459 49.5063C14.3806 49.7393 14.6978 49.87 15.0285 49.87C15.3592 49.87 15.6764 49.7393 15.9111 49.5063L21.0641 44.3533C21.297 44.1186 21.4278 43.8014 21.4278 43.4707C21.4278 43.1401 21.297 42.8228 21.0641 42.5882L17.0071 38.517C16.8864 38.4003 16.7437 38.3087 16.5873 38.2476C16.431 38.1865 16.264 38.1571 16.0961 38.1611H16.1246Z" fill="#fff"/>
<path d="M19.8968 48.0116C19.8968 48.0038 19.8906 47.9974 19.8827 47.9971C19.7011 47.9914 19.5242 47.9376 19.3702 47.8409L10.5529 42.5945C10.3389 42.4671 10.1151 42.3353 9.99034 42.1197C9.9297 42.0149 9.88736 41.8995 9.86615 41.7784C9.82321 41.5331 9.86979 41.2805 9.99741 41.0667C10.125 40.8528 10.3252 40.6919 10.5615 40.6133C10.6793 40.574 10.8022 40.5566 10.9244 40.5606C11.171 40.5689 11.3911 40.7015 11.603 40.8279L20.4235 46.09C20.6206 46.2054 20.7742 46.3825 20.8606 46.5939C20.9469 46.8053 20.9612 47.0392 20.9013 47.2596C20.8413 47.48 20.7105 47.6744 20.5289 47.813C20.3512 47.9486 20.1345 48.0232 19.9112 48.0259C19.9033 48.026 19.8968 48.0195 19.8968 48.0116Z" fill="#fff"/>
<path d="M25.2066 40.5525C24.9331 40.5463 24.6727 40.434 24.4806 40.2393L19.2991 35.0863C19.118 34.8936 19.0171 34.639 19.0171 34.3745C19.0171 34.1101 19.118 33.8555 19.2991 33.6628L29.6336 21.7482C33.0491 17.7886 36.7763 14.109 40.7795 10.7447L49.1069 3.76964C49.3099 3.60101 49.5689 3.51475 49.8325 3.52793C50.0961 3.54111 50.3451 3.65277 50.5304 3.84081L55.6834 8.99382C55.8645 9.18653 55.9654 9.44107 55.9654 9.70557C55.9654 9.97006 55.8645 10.2246 55.6834 10.4173L48.7225 18.7589C45.3874 22.7781 41.7364 26.5243 37.8044 29.9617L25.9041 40.2962C25.7104 40.4635 25.4625 40.5546 25.2066 40.5525ZM23.223 32.2819C22.2388 33.4214 22.3011 35.1274 23.3658 36.1921C24.4342 37.2605 26.1475 37.319 27.2863 36.326L36.3809 28.3959C40.2405 25.0346 43.8293 21.3744 47.114 17.4493L51.7453 11.9166C52.7255 10.7457 52.6491 9.02005 51.5693 7.94027C50.4897 6.86064 48.7643 6.78413 47.5934 7.76396L42.0749 12.3817C38.1428 15.6639 34.4821 19.258 31.1283 23.129L23.223 32.2819Z" fill="#fff"/>
<path d="M-nan -nanL55.8972 11.4708C55.6649 11.472 55.4347 11.4273 55.2198 11.3394C55.0048 11.2515 54.8093 11.122 54.6445 10.9583L48.6089 4.92277C48.4437 4.7587 48.3125 4.56355 48.223 4.34856C48.1335 4.13357 48.0874 3.90299 48.0874 3.67011C48.0874 3.43723 48.1335 3.20665 48.223 2.99166C48.3125 2.77667 48.4437 2.58151 48.6089 2.41744L50.0324 0.993958C50.1965 0.828688 50.3917 0.697518 50.6066 0.608007C50.8216 0.518495 51.0522 0.472412 51.2851 0.472412C51.518 0.472412 51.7486 0.518495 51.9635 0.608007C52.1785 0.697518 52.3737 0.828688 52.5378 0.993958L58.5733 7.02953C58.9028 7.36034 59.0878 7.8082 59.0878 8.27508C59.0878 8.74195 58.9028 9.18981 58.5733 9.52063L57.0644 11.0295C56.7421 11.3138 56.327 11.4707 55.8972 11.4708L-nan -nanZM50.8427 3.11771C50.5398 3.39635 50.5281 3.87053 50.8169 4.16373L55.3654 8.78148C55.6585 9.07897 56.1377 9.08078 56.433 8.78551C56.7267 8.49182 56.7267 8.01564 56.433 7.72194L51.8498 3.13868C51.5739 2.86288 51.1297 2.85363 50.8427 3.11771Z" fill="#fff"/>
</svg>